<svg style="height: 512px; width: 512px;" xmlns="http://www.w3.org/2000/svg" viewBox="0 0 512 512"><g class="" style="touch-action: none;" transform="translate(0,0)"><g><path d="M18 18L18 52.924C30.373 40.596 43.205 29.082 56.232 18L18 18Z" class="" fill="#000000" fill-opacity="1"></path><path d="M84.443 18C61.258 37.103 38.673 56.716 18 79.066L18 172.67C53.238 110.314 103.948 50.802 187.047 18.436L186.71 18L84.442 18Z" class="" fill="#000000" fill-opacity="1"></path><path d="M180.513 40.428C97.444 77.27 50.832 143.66 18 210.878L18 275.736C29.154 276.634 39.737 278.432 49.846 281.191C45.026 273.911 40.92 266.355 38.592 258.933C35.336 248.551 35.972 236.235 36.812 225.651C37.654 215.068 39.129 206.481 39.129 206.481L56.869 209.521C56.869 209.521 55.527 217.381 54.755 227.079C53.983 236.779 54.21 248.583 55.767 253.546C58.643 262.716 69.069 277.899 78.782 289.733C80.105 291.342 81.444 292.939 82.798 294.523C90.272 298.647 97.502 303.463 104.543 309.003C138.503 335.733 168.249 378.27 203.91 439.905C220.56 446.41 244.886 449.755 268.324 450.31C267.354 448.878 266.488 447.379 265.732 445.824C261.16 436.366 261.447 423.754 269.436 414.432C276.998 405.606 287.398 395.796 300.046 390.074C305.578 387.571 311.816 386.017 318.199 385.954C318.275 385.952 318.349 385.959 318.425 385.959L300.187 323.353C296.193 314.333 295.967 304.931 297.862 296.463C299.812 287.761 303.722 279.817 307.897 272.171C316.237 256.903 325.419 242.559 326.837 229.733C329.387 203.113 314.057 182.205 302.617 155.72L301.537 153.22L302.027 150.537C309.471 109.743 335.461 75.702 362.403 41.377C312.863 36.427 251.279 56.73 204.343 70.891L196.733 73.188L193.515 65.918C189.43 56.698 185.095 48.216 180.513 40.428Z" class="" fill="#000000" fill-opacity="1"></path><path d="M300.187 323.354C300.299 323.604 300.402 323.857 300.52 324.107L300.03 322.814L300.188 323.354Z" class="" fill="#000000" fill-opacity="1"></path><path d="M379.842 64.844C375.43 64.836 371.02 65.006 366.622 65.354C344.872 93.948 326.558 121.484 320.392 151.162C321.186 152.917 322.027 154.682 322.887 156.455C347.752 123.078 376.507 90.462 419.293 68.828C404.855 66.106 391.763 64.868 379.843 64.844Z" class="" fill="#000000" fill-opacity="1"></path><path d="M223.812 195.614L241.135 200.5C238.955 208.226 241.775 221.087 249.592 232.605C257.408 244.125 269.628 253.975 283.18 257.469L278.686 274.897C259.931 270.061 244.663 257.399 234.696 242.712C224.731 228.025 219.476 210.987 223.811 195.614Z" class="" fill="#ffffff" fill-opacity="1"></path><path d="M353.845 295.67L349.048 380.543L370.865 318.219L353.845 295.669Z" class="" fill="#000000" fill-opacity="1"></path><path d="M426.239 324.74L375.067 390.89C375.067 390.89 453.413 364.76 457.251 363.732C461.089 362.704 426.239 324.74 426.239 324.74Z" class="" fill="#000000" fill-opacity="1"></path><path d="M464.911 401.816L390.671 416.469L466.854 423.204L464.911 401.814Z" class="" fill="#000000" fill-opacity="1"></path><path d="M321.249 402.359C327.445 439.145 308.064 441.279 287.479 444.571C296.403 447.005 325.159 450.776 333.169 437.618C339.621 427.02 327.493 410.305 321.249 402.358Z" class="" fill="#000000" fill-opacity="1"></path><path d="M375.645 445.075L415.171 470.899L459.301 455.229L375.645 445.075Z" class="" fill="#000000" fill-opacity="1"></path><path d="M18 471L18 489L494 489L494 471L18 471Z" class="selected" fill="#ffffff" fill-opacity="1"></path></g></g></svg>